<svg width="72" height="58" viewBox="0 0 72 58" fill="none" xmlns="http://www.w3.org/2000/svg">
<path d="M18.0391 41.3258C18.2706 41.9878 18.5519 42.6505 18.8844 43.307C19.216 43.9639 19.5942 44.6177 20.0257 45.2583C20.1337 45.4184 20.246 45.5767 20.362 45.7338C20.4695 45.8853 20.616 46.0681 20.7403 46.2287L20.8932 46.4226L20.9315 46.4711L20.9507 46.4954L20.9982 46.5496L21.0927 46.66C21.2201 46.8068 21.3477 46.9542 21.476 47.1019C22.523 48.2652 23.7431 49.3325 25.0978 50.2515C25.7765 50.7078 26.4867 51.1312 27.2232 51.5148C27.3841 51.5968 27.5468 51.6763 27.71 51.7547C28.3711 51.5672 29.022 51.3662 29.6591 51.149L30.5831 50.8366L31.0594 50.6599C31.2256 50.5986 31.3696 50.5451 31.4849 50.4975L31.6474 50.4325C31.9037 50.3303 32.1459 50.2336 32.3893 50.128L32.419 50.1155C32.7136 49.9938 33.0169 49.8574 33.3006 49.7279C34.5259 49.1698 35.6816 48.556 36.7363 47.9029C36.9896 47.7472 37.2409 47.5853 37.4902 47.4184C35.4847 47.2551 33.5501 46.8642 31.7683 46.2607C29.4489 45.4793 27.3871 44.3353 25.7359 42.8814C25.6342 42.7889 25.5329 42.6967 25.4318 42.6048L25.3553 42.5365C25.3596 42.5426 25.3184 42.4987 25.3602 42.5459L25.3382 42.5242L25.2941 42.4808L25.1183 42.3076C25.0307 42.2178 24.96 42.1566 24.8649 42.053C24.7735 41.9593 24.6861 41.862 24.5977 41.7655C24.2441 41.3796 23.9176 40.9704 23.618 40.5468C23.025 39.6963 22.5112 38.8008 22.122 37.8827C21.3151 36.053 20.9217 34.1845 20.8186 32.5026C20.7088 30.8149 20.9092 29.3113 21.2188 28.0921C21.5295 26.8703 21.9538 25.9339 22.2764 25.3072C22.4379 24.993 22.5758 24.7561 22.6684 24.595C22.7636 24.4349 22.8128 24.3523 22.8128 24.3523L23.6888 23L22.3492 23.9062C22.3492 23.9062 22.2663 23.965 22.1056 24.0788C21.9449 24.1939 21.7131 24.3732 21.4209 24.6252C20.8396 25.1289 20.0272 25.9502 19.2299 27.2043C18.4333 28.4525 17.6855 30.1506 17.2886 32.2301C16.8928 34.3045 16.8628 36.7562 17.4598 39.3589C17.6103 40.0086 17.8048 40.6649 18.0391 41.3258Z" fill="#FA1239"/>
<path d="M67.8086 19.5377C67.5845 18.4642 67.3179 17.4614 67.0316 16.5331C66.7564 15.6454 66.4642 14.8276 66.1673 14.078L71.7059 15.2467L59.712 0L61.1741 20.4354L64.7137 14.5628C64.9064 15.3052 65.0877 16.1078 65.2399 16.9708C65.4012 17.875 65.531 18.8422 65.6182 19.8619C65.7078 20.8812 65.7541 21.9539 65.7327 23.0675C65.6978 25.2938 65.3843 27.6852 64.7084 30.0893C64.026 32.4906 62.9587 34.8967 61.4741 37.1202L61.1918 37.5354L60.9011 37.9467L60.6002 38.3578C60.4868 38.518 60.3951 38.6264 60.2978 38.7502L60.1534 38.933L59.9954 39.1223C59.8874 39.2481 59.7856 39.3786 59.6728 39.5011L59.3396 39.8733L58.9941 40.2365C58.0562 41.1927 57.021 42.0808 55.8887 42.8683C54.9121 43.5524 53.8714 44.1701 52.7826 44.7169C51.8599 46.2371 50.8403 47.6231 49.7464 48.8369L49.5773 49.0218C49.338 49.2836 49.0907 49.5543 48.7982 49.8414L48.3682 50.2713L47.6075 50.9715L46.8462 51.6239L46.8167 51.6471C46.7158 51.7264 46.6155 51.8068 46.5153 51.8874C46.2899 52.0684 46.0568 52.2557 45.8039 52.4402C45.2493 52.8558 44.6786 53.2522 44.0956 53.6298C44.1253 53.6232 44.1538 53.6175 44.184 53.6105L44.5188 53.5363C44.625 53.5118 44.7089 53.4879 44.805 53.4634L45.416 53.3031C46.2133 53.084 47.0056 52.8365 47.7922 52.5697C48.5793 52.304 49.3618 52.0204 50.134 51.7049C53.2176 50.449 56.2115 48.8565 58.8221 46.7619C60.1298 45.7235 61.3331 44.5591 62.399 43.301L62.7923 42.8249L63.1706 42.3386C63.2977 42.1781 63.414 42.0088 63.5354 41.8447L63.7154 41.5948L63.8961 41.3302C64.0146 41.1553 64.1436 40.9695 64.2323 40.8229C64.337 40.6559 64.4415 40.4891 64.5457 40.3227C64.7478 39.9823 64.9433 39.6403 65.1297 39.2951C65.8706 37.9117 66.4824 36.4939 66.9668 35.074C67.4492 33.6529 67.8 32.2296 68.0422 30.8352C68.2867 29.4408 68.4113 28.0729 68.4471 26.755C68.4845 25.4369 68.4348 24.1681 68.3191 22.9619C68.2064 21.7559 68.0266 20.6119 67.8086 19.5377Z" fill="#FA1239"/>
<path d="M54.2212 33.9399C54.2686 33.602 54.2115 33.2649 54.2046 32.9285C54.1857 32.7105 54.1466 32.4929 54.1279 32.2756C54.1089 32.0582 54.0884 31.841 54.0651 31.6245C54.0372 31.4091 53.9959 31.1969 53.9611 30.9834C53.924 30.7703 53.887 30.5576 53.85 30.3453C53.8159 30.132 53.7507 29.9278 53.7018 29.7193C53.5922 29.306 53.5006 28.8875 53.3556 28.4896C53.0946 27.6828 52.7771 26.905 52.4163 26.1578C52.2244 25.79 52.0399 25.4206 51.8397 25.0628C51.6222 24.715 51.4058 24.3691 51.1906 24.0249C50.2823 22.679 49.2144 21.488 48.0497 20.4721C46.8854 19.4566 45.625 18.6088 44.3087 17.9796L44.0655 17.8582L44.0048 17.8282L43.8763 17.7626L43.8499 17.7522L43.7444 17.7106C43.6039 17.6553 43.4638 17.6001 43.3244 17.5452C43.1851 17.4904 43.0463 17.4358 42.9083 17.3814L42.8026 17.3403L42.6686 17.2941L42.4014 17.2032C42.2239 17.1442 42.0472 17.0855 41.8714 17.0271C41.6977 16.9731 41.5169 16.9054 41.3516 16.8677C41.0228 16.7923 40.6972 16.7177 40.3751 16.6438C39.0832 16.3917 37.8377 16.2649 36.6642 16.3014C36.5182 16.3029 36.3729 16.3041 36.2286 16.3054C36.0847 16.3168 35.9417 16.3279 35.7996 16.339C35.5175 16.363 35.2393 16.3866 34.9649 16.4099C34.42 16.4913 33.8936 16.5558 33.3934 16.6758C31.3853 17.1089 29.7639 17.842 28.5416 18.5749C28.3899 18.6681 28.2422 18.7588 28.0987 18.847C28.0277 18.8912 27.9577 18.9348 27.8887 18.9776C27.8225 19.0259 27.7572 19.0737 27.693 19.1205C27.4401 19.3077 27.2031 19.4832 26.9826 19.6465C26.5608 19.9987 26.218 20.3085 25.9492 20.5648C25.4329 21.1105 25.1801 21.4052 25.1801 21.4052L24.3858 22.4142L25.5693 21.9174C25.5693 21.9174 25.932 21.7812 26.5694 21.5186C26.7304 21.4558 26.9198 21.4027 27.1186 21.3331C27.3202 21.2681 27.5315 21.1855 27.7702 21.12C28.0071 21.0564 28.2616 20.988 28.5333 20.915C28.6003 20.8971 28.6684 20.879 28.7375 20.8605C28.8083 20.8464 28.8801 20.8319 28.953 20.8173C29.0973 20.7878 29.2457 20.7574 29.3982 20.7262C30.6145 20.4885 32.096 20.3418 33.7377 20.4298C33.942 20.4309 34.1506 20.4615 34.3602 20.4835C34.5697 20.5046 34.7813 20.521 34.9946 20.5454C35.2065 20.5807 35.4215 20.6165 35.6394 20.6529C35.7473 20.6708 35.8561 20.6889 35.9655 20.707C36.0736 20.732 36.1825 20.7571 36.292 20.7824C36.5104 20.8325 36.731 20.8776 36.9518 20.9307C37.1691 20.9958 37.3891 21.0617 37.6116 21.1284C37.8346 21.1875 38.0519 21.2725 38.2719 21.3518C38.3817 21.3913 38.492 21.4309 38.6029 21.4708L38.7691 21.53L38.931 21.6033C39.1461 21.6992 39.3634 21.7962 39.5829 21.894C39.7849 21.9959 39.9617 22.0981 40.1541 22.1952L40.2961 22.2679L40.3674 22.3039L40.4612 22.3593C40.5886 22.4354 40.7167 22.5118 40.8452 22.5886C40.9738 22.6652 41.1029 22.7424 41.2326 22.8199L41.33 22.8781L41.3544 22.8927C41.1644 22.7961 41.3124 22.8739 41.2747 22.8558L41.3115 22.8835L41.4595 22.9938C42.2712 23.5399 43.0277 24.2266 43.7281 24.9935C44.4281 25.7622 45.0648 26.6266 45.6193 27.5649C46.1702 28.5058 46.6329 29.5218 46.9884 30.5853C47.0944 30.8467 47.1563 31.1204 47.238 31.3906C47.325 31.6603 47.3806 31.936 47.4436 32.2123C47.4737 32.3504 47.5115 32.4884 47.5372 32.6276C47.5566 32.7676 47.579 32.9073 47.6029 33.0474L47.6756 33.4692L47.7105 33.8344L47.7595 34.2022C47.7612 34.2193 47.765 34.2294 47.7652 34.2521L47.7662 34.3203L47.7681 34.457L47.7719 34.7305L47.7823 35.2786L47.7838 35.3473L47.7847 35.3816C47.7968 35.1468 47.7874 35.3322 47.7898 35.287L47.786 35.3968L47.7788 35.6168C47.7717 36.2057 47.6916 36.8002 47.6055 37.4017C47.3994 38.6008 47.0378 39.8153 46.5116 40.9901C46.2421 41.5743 45.9558 42.1598 45.6074 42.7155C45.4477 43.002 45.2544 43.269 45.0754 43.5455C44.9838 43.6827 44.8824 43.8132 44.7866 43.9478C44.6879 44.0803 44.5966 44.2187 44.4906 44.3462C44.2841 44.6035 44.0762 44.8746 43.8751 45.0994L43.7235 45.2768L43.6479 45.3658L43.6097 45.4107L43.5613 45.4618L43.1741 45.8711L43.0774 45.9733L43.029 46.0244L43.0049 46.05C43.0689 45.9884 43.0097 46.0456 43.0182 46.0375L42.8384 46.2143L42.4793 46.5689C42.2278 46.7939 41.9872 47.0305 41.727 47.2476C40.7008 48.1303 39.5982 48.9428 38.43 49.6612C37.2643 50.3829 36.0449 51.0232 34.7973 51.5916C34.4855 51.7338 34.1733 51.874 33.8571 52.0046C33.5403 52.1422 33.232 52.263 32.9234 52.3865C32.7743 52.4481 32.6062 52.5104 32.4375 52.5725C32.2703 52.6346 32.1034 52.6965 31.9369 52.7584C31.6209 52.8651 31.3063 52.9716 30.993 53.0775C28.4383 53.9486 25.871 54.5349 23.4004 54.9089C20.9284 55.2811 18.5504 55.4203 16.3514 55.4016C16.0762 55.3974 15.804 55.3932 15.5347 55.3891C15.3998 55.3871 15.2658 55.3851 15.1324 55.3831C14.9994 55.3762 14.8672 55.3692 14.7356 55.3623C14.2083 55.3342 13.6932 55.3069 13.191 55.2801C12.1912 55.1799 11.2347 55.1083 10.3464 54.9656C8.56 54.7302 7.02218 54.3843 5.7541 54.0947C4.50217 53.7734 3.51951 53.5017 2.84536 53.2738C2.17251 53.0608 1.81371 52.9471 1.81371 52.9471L0 52.3483L1.5813 53.547C1.5813 53.547 1.92302 53.7047 2.56383 54.0005C3.19322 54.3082 4.16762 54.702 5.41815 55.1865C5.73266 55.2975 6.06414 55.4143 6.41164 55.5369C6.76008 55.6583 7.12254 55.795 7.50997 55.904C7.89622 56.0196 8.29826 56.1398 8.71526 56.2646C8.81974 56.2957 8.92517 56.327 9.03154 56.3587C9.13897 56.3859 9.24734 56.4132 9.35654 56.4409C9.57541 56.4962 9.79792 56.5525 10.0241 56.6096C10.9264 56.856 11.9033 57.0384 12.9331 57.2546C13.452 57.3392 13.9843 57.4259 14.5291 57.5147C14.6656 57.5365 14.8031 57.5584 14.9411 57.5803C15.0799 57.5962 15.2195 57.6123 15.3598 57.6284C15.6408 57.6606 15.925 57.6931 16.2121 57.7259C18.5113 57.9728 21.031 58.0754 23.6995 57.9395C26.3676 57.8077 29.1805 57.4158 32.0416 56.7306C32.2203 56.6869 32.3993 56.6432 32.5787 56.5993L32.8482 56.5333L32.9832 56.5002L33.0507 56.4836C33.0704 56.478 33.0544 56.4841 33.1035 56.4691L33.1356 56.4601C33.3067 56.4125 33.4782 56.3649 33.6501 56.3172C33.8208 56.2703 33.9924 56.2229 34.1802 56.1643C34.5473 56.0534 34.9185 55.9423 35.2746 55.8225C35.6357 55.7077 35.9955 55.5818 36.356 55.4532C37.8003 54.9441 39.235 54.3175 40.6471 53.5884C42.0606 52.8624 43.4396 52.0045 44.7525 51.0196C45.0841 50.7785 45.3999 50.5124 45.7244 50.2576L46.1961 49.8539L46.4319 49.6513L46.6783 49.4244L47.0928 49.0428L47.1447 48.9951L47.2029 48.9373L47.3196 48.8207L47.5528 48.5867C47.8745 48.2716 48.147 47.9648 48.4325 47.6543C49.5588 46.4045 50.5499 45.022 51.4226 43.5514C51.8463 42.8083 52.2442 42.0454 52.5825 41.2495C52.938 40.4618 53.2187 39.6364 53.4756 38.8028C53.7065 37.9605 53.9092 37.1057 54.0254 36.2328L54.0721 35.9061L54.0955 35.7427L54.1168 35.4772L54.1625 34.9308L54.1859 34.6581L54.2015 34.5219L54.2169 34.4538C54.2188 34.4299 54.2409 34.392 54.2385 34.3629C54.2334 34.2204 54.2274 34.0824 54.2212 33.9399Z" fill="#FA1239"/>
</svg>
